<svg width="24" height="24" viewBox="0 0 24 24" fill="none" xmlns="http://www.w3.org/2000/svg">
<path d="M21.8938 13.334C21.7976 13.2376 21.6769 13.1692 21.5448 13.1362C21.4127 13.1032 21.274 13.1067 21.1438 13.1465C19.7137 13.5789 18.1931 13.6151 16.744 13.2514C15.295 12.8877 13.9717 12.1377 12.9153 11.0813C11.8589 10.0249 11.1088 8.7016 10.7451 7.25254C10.3814 5.80347 10.4177 4.28288 10.85 2.85279C10.8902 2.72248 10.894 2.5837 10.8611 2.45137C10.8283 2.31903 10.76 2.19816 10.6636 2.10175C10.5672 2.00534 10.4463 1.93703 10.314 1.90418C10.1816 1.87132 10.0428 1.87517 9.91253 1.91529C7.93537 2.52096 6.1996 3.73478 4.95222 5.38404C3.86136 6.83234 3.19596 8.55614 3.03078 10.3618C2.8656 12.1674 3.20719 13.9833 4.01717 15.6055C4.82714 17.2277 6.07342 18.5919 7.61597 19.5448C9.15852 20.4978 10.9362 21.0017 12.7494 21C14.8647 21.0065 16.9238 20.3188 18.6107 19.0425C20.2599 17.7951 21.4737 16.0593 22.0794 14.0822C22.1191 13.9523 22.1227 13.8142 22.0901 13.6824C22.0574 13.5507 21.9895 13.4303 21.8938 13.334ZM17.7088 17.8444C16.1202 19.0408 14.1529 19.6232 12.169 19.4843C10.1852 19.3454 8.31822 18.4945 6.91191 17.0884C5.5056 15.6822 4.65458 13.8153 4.51551 11.8314C4.37643 9.84753 4.95867 7.88019 6.15503 6.29154C6.93447 5.26222 7.94216 4.42784 9.09878 3.85404C9.03289 4.31644 8.99969 4.78291 8.99941 5.24998C9.00214 7.835 10.0302 10.3134 11.8581 12.1413C13.686 13.9691 16.1644 14.9972 18.7494 15C19.2174 14.9998 19.6848 14.9666 20.1482 14.9006C19.5738 16.0574 18.7388 17.0651 17.7088 17.8444Z" fill="#50707A"/>
</svg>
