<svg width="30" height="30" viewBox="0 0 30 30" fill="none" xmlns="http://www.w3.org/2000/svg">
<path d="M3.75 8.4375V6.5625C3.75 6.31386 3.84877 6.0754 4.02459 5.89959C4.2004 5.72377 4.43886 5.625 4.6875 5.625H25.3125C25.5611 5.625 25.7996 5.72377 25.9754 5.89959C26.1512 6.0754 26.25 6.31386 26.25 6.5625V8.4375C26.25 8.68614 26.1512 8.9246 25.9754 9.10041C25.7996 9.27623 25.5611 9.375 25.3125 9.375H4.6875C4.43886 9.375 4.2004 9.27623 4.02459 9.10041C3.84877 8.9246 3.75 8.68614 3.75 8.4375ZM4.6875 16.875H25.3125C25.5611 16.875 25.7996 16.7762 25.9754 16.6004C26.1512 16.4246 26.25 16.1861 26.25 15.9375V14.0625C26.25 13.8139 26.1512 13.5754 25.9754 13.3996C25.7996 13.2238 25.5611 13.125 25.3125 13.125H4.6875C4.43886 13.125 4.2004 13.2238 4.02459 13.3996C3.84877 13.5754 3.75 13.8139 3.75 14.0625V15.9375C3.75 16.1861 3.84877 16.4246 4.02459 16.6004C4.2004 16.7762 4.43886 16.875 4.6875 16.875ZM17.8125 20.625H4.6875C4.43886 20.625 4.2004 20.7238 4.02459 20.8996C3.84877 21.0754 3.75 21.3139 3.75 21.5625V23.4375C3.75 23.6861 3.84877 23.9246 4.02459 24.1004C4.2004 24.2762 4.43886 24.375 4.6875 24.375H17.8125C18.0611 24.375 18.2996 24.2762 18.4754 24.1004C18.6512 23.9246 18.75 23.6861 18.75 23.4375V21.5625C18.75 21.3139 18.6512 21.0754 18.4754 20.8996C18.2996 20.7238 18.0611 20.625 17.8125 20.625ZM27.1875 21.5625H25.3125V19.6875C25.3125 19.4389 25.2137 19.2004 25.0379 19.0246C24.8621 18.8488 24.6236 18.75 24.375 18.75C24.1264 18.75 23.8879 18.8488 23.7121 19.0246C23.5363 19.2004 23.4375 19.4389 23.4375 19.6875V21.5625H21.5625C21.3139 21.5625 21.0754 21.6613 20.8996 21.8371C20.7238 22.0129 20.625 22.2514 20.625 22.5C20.625 22.7486 20.7238 22.9871 20.8996 23.1629C21.0754 23.3387 21.3139 23.4375 21.5625 23.4375H23.4375V25.3125C23.4375 25.5611 23.5363 25.7996 23.7121 25.9754C23.8879 26.1512 24.1264 26.25 24.375 26.25C24.6236 26.25 24.8621 26.1512 25.0379 25.9754C25.2137 25.7996 25.3125 25.5611 25.3125 25.3125V23.4375H27.1875C27.4361 23.4375 27.6746 23.3387 27.8504 23.1629C28.0262 22.9871 28.125 22.7486 28.125 22.5C28.125 22.2514 28.0262 22.0129 27.8504 21.8371C27.6746 21.6613 27.4361 21.5625 27.1875 21.5625Z" fill="#CCCCCC"/>
</svg>
