<svg width="6" height="4" viewBox="0 0 6 4" fill="none" xmlns="http://www.w3.org/2000/svg">
<path d="M0.322928 2.82312L2.82293 0.323125C2.84615 0.299881 2.87372 0.281441 2.90407 0.26886C2.93442 0.256279 2.96695 0.249804 2.9998 0.249804C3.03266 0.249804 3.06519 0.256279 3.09554 0.26886C3.12589 0.281441 3.15346 0.299881 3.17668 0.323125L5.67668 2.82312C5.71168 2.85809 5.73552 2.90265 5.74519 2.95117C5.75485 2.99969 5.7499 3.04999 5.73096 3.0957C5.71202 3.1414 5.67995 3.18046 5.6388 3.20793C5.59765 3.2354 5.54928 3.25004 5.4998 3.25L0.499803 3.25C0.450329 3.25004 0.401956 3.2354 0.360807 3.20793C0.319659 3.18046 0.287586 3.1414 0.268648 3.0957C0.24971 3.04999 0.244758 2.99969 0.254421 2.95117C0.264083 2.90265 0.287925 2.85809 0.322928 2.82312Z" fill="#0C4A60"/>
</svg>
