<svg width="28" height="28" viewBox="0 0 28 28" fill="none" xmlns="http://www.w3.org/2000/svg">
<path d="M24.9376 14C24.9376 14.3481 24.7993 14.6819 24.5531 14.928C24.307 15.1742 23.9732 15.3125 23.6251 15.3125H7.54693L13.1819 20.9464C13.4285 21.1929 13.567 21.5274 13.567 21.8761C13.567 22.2248 13.4285 22.5592 13.1819 22.8057C12.9354 23.0523 12.6009 23.1908 12.2522 23.1908C11.9035 23.1908 11.5691 23.0523 11.3226 22.8057L3.44756 14.9307C3.3252 14.8088 3.22811 14.6639 3.16187 14.5044C3.09562 14.3448 3.06152 14.1738 3.06152 14.0011C3.06152 13.8283 3.09562 13.6573 3.16187 13.4977C3.22811 13.3382 3.3252 13.1933 3.44756 13.0714L11.3226 5.19637C11.4446 5.07428 11.5896 4.97743 11.7491 4.91136C11.9086 4.84529 12.0796 4.81128 12.2522 4.81128C12.4249 4.81128 12.5959 4.84529 12.7554 4.91136C12.9149 4.97743 13.0598 5.07428 13.1819 5.19637C13.304 5.31846 13.4009 5.4634 13.4669 5.62291C13.533 5.78243 13.567 5.9534 13.567 6.12606C13.567 6.29871 13.533 6.46968 13.4669 6.6292C13.4009 6.78872 13.304 6.93366 13.1819 7.05574L7.54693 12.6875H23.6251C23.9732 12.6875 24.307 12.8257 24.5531 13.0719C24.7993 13.318 24.9376 13.6519 24.9376 14Z" fill="black"/>
</svg>
