<svg width="8" height="8" viewBox="0 0 8 8" fill="none" xmlns="http://www.w3.org/2000/svg">
<path d="M7.37521 1V5.875C7.37521 5.97446 7.3357 6.06984 7.26537 6.14017C7.19505 6.21049 7.09966 6.25 7.00021 6.25C6.90075 6.25 6.80537 6.21049 6.73504 6.14017C6.66472 6.06984 6.62521 5.97446 6.62521 5.875V1.90516L1.26552 7.26531C1.19516 7.33568 1.09972 7.37521 1.00021 7.37521C0.900697 7.37521 0.805261 7.33568 0.734896 7.26531C0.664531 7.19495 0.625 7.09951 0.625 7C0.625 6.90049 0.664531 6.80505 0.734896 6.73469L6.09505 1.375H2.12521C2.02575 1.375 1.93037 1.33549 1.86004 1.26516C1.78972 1.19484 1.75021 1.09946 1.75021 1C1.75021 0.900544 1.78972 0.805161 1.86004 0.734835C1.93037 0.664509 2.02575 0.625 2.12521 0.625H7.00021C7.09966 0.625 7.19505 0.664509 7.26537 0.734835C7.3357 0.805161 7.37521 0.900544 7.37521 1Z" fill="black"/>
</svg>
