<svg width="6" height="4" viewBox="0 0 6 4" fill="none" xmlns="http://www.w3.org/2000/svg">
<path d="M5.67689 0.676875L3.17689 3.17688C3.15367 3.20012 3.1261 3.21856 3.09575 3.23114C3.0654 3.24372 3.03287 3.2502 3.00001 3.2502C2.96716 3.2502 2.93463 3.24372 2.90428 3.23114C2.87393 3.21856 2.84636 3.20012 2.82314 3.17688L0.323139 0.676875C0.288136 0.641911 0.264294 0.597348 0.254631 0.548827C0.244969 0.500306 0.24992 0.450008 0.268858 0.404302C0.287796 0.358597 0.31987 0.319538 0.361018 0.29207C0.402167 0.264602 0.45054 0.249961 0.500014 0.25H5.50001C5.54949 0.249961 5.59786 0.264602 5.63901 0.29207C5.68016 0.319538 5.71223 0.358597 5.73117 0.404302C5.75011 0.450008 5.75506 0.500306 5.7454 0.548827C5.73573 0.597348 5.71189 0.641911 5.67689 0.676875Z" fill="#0C4A60"/>
</svg>
