<svg width="16" height="16" viewBox="0 0 16 16" fill="none" xmlns="http://www.w3.org/2000/svg">
<path d="M6.35375 2.64625L11.3538 7.64625C11.4002 7.69269 11.4371 7.74783 11.4623 7.80853C11.4874 7.86923 11.5004 7.9343 11.5004 8C11.5004 8.06571 11.4874 8.13077 11.4623 8.19147C11.4371 8.25217 11.4002 8.30732 11.3538 8.35375L6.35375 13.3538C6.28382 13.4238 6.1947 13.4714 6.09765 13.4908C6.00061 13.5101 5.90002 13.5002 5.8086 13.4623C5.71719 13.4244 5.63908 13.3603 5.58414 13.278C5.5292 13.1957 5.49992 13.099 5.5 13L5.5 3C5.49992 2.90106 5.5292 2.80431 5.58414 2.72201C5.63908 2.63971 5.71719 2.57557 5.8086 2.53769C5.90002 2.49982 6.00061 2.48991 6.09765 2.50924C6.1947 2.52856 6.28382 2.57625 6.35375 2.64625Z" fill="#1C1819"/>
</svg>
