<svg width="24" height="24" viewBox="0 0 24 24" fill="none" xmlns="http://www.w3.org/2000/svg">
<path d="M21.3759 12C21.3759 12.2983 21.2574 12.5845 21.0464 12.7955C20.8354 13.0064 20.5493 13.125 20.2509 13.125H6.46964L11.2996 17.954C11.511 18.1654 11.6297 18.452 11.6297 18.7509C11.6297 19.0498 11.511 19.3364 11.2996 19.5478C11.0883 19.7591 10.8016 19.8779 10.5028 19.8779C10.2039 19.8779 9.91723 19.7591 9.70589 19.5478L2.95589 12.7978C2.85101 12.6933 2.76779 12.5691 2.71101 12.4323C2.65423 12.2956 2.625 12.149 2.625 12.0009C2.625 11.8528 2.65423 11.7062 2.71101 11.5695C2.76779 11.4327 2.85101 11.3086 2.95589 11.204L9.70589 4.45404C9.81053 4.34939 9.93477 4.26638 10.0715 4.20975C10.2082 4.15311 10.3548 4.12396 10.5028 4.12396C10.6508 4.12396 10.7973 4.15311 10.934 4.20975C11.0708 4.26638 11.195 4.34939 11.2996 4.45404C11.4043 4.55869 11.4873 4.68292 11.5439 4.81965C11.6006 4.95638 11.6297 5.10292 11.6297 5.25091C11.6297 5.39891 11.6006 5.54545 11.5439 5.68218C11.4873 5.81891 11.4043 5.94314 11.2996 6.04779L6.46964 10.875H20.2509C20.5493 10.875 20.8354 10.9935 21.0464 11.2045C21.2574 11.4155 21.3759 11.7016 21.3759 12Z" fill="#0C4A60"/>
</svg>
