<svg width="30" height="30" viewBox="0 0 30 30" fill="none" xmlns="http://www.w3.org/2000/svg">
<path d="M27.1875 14.9999C27.188 17.104 26.6436 19.1724 25.6075 21.0038C24.5714 22.8352 23.0788 24.3671 21.275 25.4505C19.4712 26.5338 17.4177 27.1317 15.3142 27.186C13.2108 27.2402 11.1291 26.749 9.27187 25.76L5.28164 27.0901C4.95127 27.2003 4.59675 27.2163 4.2578 27.1363C3.91886 27.0563 3.60889 26.8835 3.36264 26.6372C3.11638 26.391 2.94358 26.081 2.86359 25.7421C2.7836 25.4031 2.79959 25.0486 2.90977 24.7182L4.23984 20.728C3.37049 19.0935 2.88492 17.2824 2.82 15.4323C2.75508 13.5821 3.11251 11.7415 3.86516 10.05C4.61781 8.35863 5.7459 6.86091 7.16381 5.67058C8.58171 4.48024 10.2522 3.62857 12.0484 3.18021C13.8446 2.73184 15.7193 2.69858 17.5303 3.08293C19.3412 3.46729 21.0409 4.25916 22.5001 5.39844C23.9593 6.53773 25.1399 7.99448 25.952 9.65812C26.7642 11.3218 27.1867 13.1486 27.1875 14.9999Z" fill="#CCCCCC"/>
</svg>
