<svg width="22" height="20" viewBox="0 0 22 20" fill="none" xmlns="http://www.w3.org/2000/svg">
<path d="M19 6C18.7167 6 18.4793 5.904 18.288 5.712C18.0967 5.52 18.0007 5.28267 18 5V4H17C16.7167 4 16.4793 3.904 16.288 3.712C16.0967 3.52 16.0007 3.28267 16 3C15.9993 2.71734 16.0953 2.48 16.288 2.288C16.4807 2.096 16.718 2 17 2H18V1C18 0.71667 18.096 0.479337 18.288 0.288003C18.48 0.0966701 18.7173 0.000670115 19 3.44828e-06C19.2827 -0.000663218 19.5203 0.0953368 19.713 0.288003C19.9057 0.48067 20.0013 0.718003 20 1V2H21C21.2833 2 21.521 2.096 21.713 2.288C21.905 2.48 22.0007 2.71734 22 3C21.9993 3.28267 21.9033 3.52034 21.712 3.713C21.5207 3.90567 21.2833 4.00134 21 4H20V5C20 5.28334 19.904 5.521 19.712 5.713C19.52 5.905 19.2827 6.00067 19 6ZM10 16.5C11.25 16.5 12.3127 16.0627 13.188 15.188C14.0633 14.3133 14.5007 13.2507 14.5 12C14.4993 10.7493 14.062 9.687 13.188 8.813C12.314 7.939 11.2513 7.50134 10 7.5C8.74867 7.49867 7.68633 7.93634 6.813 8.813C5.93967 9.68967 5.502 10.752 5.5 12C5.498 13.248 5.93567 14.3107 6.813 15.188C7.69033 16.0653 8.75267 16.5027 10 16.5ZM10 14.5C9.3 14.5 8.70833 14.2583 8.225 13.775C7.74167 13.2917 7.5 12.7 7.5 12C7.5 11.3 7.74167 10.7083 8.225 10.225C8.70833 9.74167 9.3 9.5 10 9.5C10.7 9.5 11.2917 9.74167 11.775 10.225C12.2583 10.7083 12.5 11.3 12.5 12C12.5 12.7 12.2583 13.2917 11.775 13.775C11.2917 14.2583 10.7 14.5 10 14.5ZM2 20C1.45 20 0.979333 19.8043 0.588 19.413C0.196667 19.0217 0.000666667 18.5507 0 18V6C0 5.45 0.196 4.97934 0.588 4.588C0.98 4.19667 1.45067 4.00067 2 4H5.15L6.4 2.65C6.58333 2.45 6.80433 2.29167 7.063 2.175C7.32167 2.05834 7.59233 2 7.875 2H13C13.2833 2 13.521 2.096 13.713 2.288C13.905 2.48 14.0007 2.71734 14 3V4.5C14 4.91667 14.146 5.271 14.438 5.563C14.73 5.855 15.084 6.00067 15.5 6H16V6.5C16 6.91667 16.146 7.271 16.438 7.563C16.73 7.855 17.084 8.00067 17.5 8H19C19.2833 8 19.521 8.096 19.713 8.288C19.905 8.48 20.0007 8.71734 20 9V18C20 18.55 19.8043 19.021 19.413 19.413C19.0217 19.805 18.5507 20.0007 18 20H2Z" fill="black"/>
</svg>
