<svg width="30" height="30" viewBox="0 0 30 30" fill="none" xmlns="http://www.w3.org/2000/svg">
<path d="M28.125 11.4843C28.127 12.3771 27.952 13.2614 27.61 14.0861C27.2681 14.9108 26.766 15.6596 26.1328 16.289L15.668 26.9085C15.5807 26.9971 15.4768 27.0674 15.3621 27.1155C15.2474 27.1635 15.1243 27.1882 15 27.1882C14.8757 27.1882 14.7526 27.1635 14.6379 27.1155C14.5232 27.0674 14.4193 26.9971 14.332 26.9085L3.86719 16.289C2.59135 15.0147 1.87398 13.2858 1.87288 11.4826C1.87178 9.67938 2.58705 7.94959 3.86133 6.67375C5.13561 5.39792 6.86453 4.68054 8.66773 4.67944C10.4709 4.67835 12.2007 5.39361 13.4766 6.6679L15 8.09172L16.534 6.66321C17.4861 5.71585 18.6975 5.07181 20.0153 4.81238C21.3331 4.55296 22.6983 4.68979 23.9384 5.2056C25.1785 5.72141 26.238 6.59307 26.9831 7.71054C27.7283 8.82801 28.1256 10.1412 28.125 11.4843Z" fill="#CCCCCC"/>
</svg>
