<svg width="18" height="18" viewBox="0 0 18 18" fill="none" xmlns="http://www.w3.org/2000/svg">
<path d="M16.8743 6.89062C16.8755 7.4263 16.7705 7.95689 16.5653 8.45172C16.3602 8.94654 16.0589 9.39578 15.679 9.77344L9.4001 16.1452C9.34776 16.1983 9.28537 16.2405 9.21657 16.2693C9.14776 16.2981 9.07391 16.313 8.99932 16.313C8.92473 16.313 8.85088 16.2981 8.78207 16.2693C8.71327 16.2405 8.65088 16.1983 8.59854 16.1452L2.31963 9.77344C1.55413 9.00887 1.12371 7.97152 1.12305 6.88959C1.12239 5.80767 1.55155 4.7698 2.31612 4.0043C3.08069 3.23879 4.11804 2.80837 5.19996 2.80771C6.28188 2.80705 7.31976 3.23621 8.08526 4.00078L8.99932 4.85508L9.91971 3.99797C10.491 3.42955 11.2178 3.04313 12.0085 2.88747C12.7992 2.73182 13.6183 2.81392 14.3624 3.1234C15.1064 3.43289 15.7421 3.95588 16.1892 4.62636C16.6363 5.29685 16.8747 6.08476 16.8743 6.89062Z" fill="#F10000"/>
</svg>
