<svg width="18" height="18" viewBox="0 0 18 18" fill="none" xmlns="http://www.w3.org/2000/svg">
<path d="M15.5812 4.10484C14.8432 3.36833 13.8434 2.95422 12.8008 2.95317C11.7581 2.95211 10.7575 3.3642 10.018 4.09922L8.99992 5.04703L7.98179 4.09922C7.24286 3.36122 6.24103 2.94699 5.19669 2.94765C4.15235 2.94831 3.15104 3.3638 2.41304 4.10273C1.67505 4.84166 1.26082 5.84349 1.26148 6.88784C1.26213 7.93218 1.67763 8.93349 2.41656 9.67148L8.69968 16.046C8.73893 16.0858 8.78567 16.1173 8.83721 16.1389C8.88875 16.1604 8.94406 16.1715 8.99992 16.1715C9.05578 16.1715 9.11108 16.1604 9.16262 16.1389C9.21416 16.1173 9.26091 16.0858 9.30015 16.046L15.5812 9.67429C15.9469 9.30864 16.2371 8.87452 16.4351 8.39671C16.633 7.9189 16.7349 7.40676 16.7349 6.88957C16.7349 6.37237 16.633 5.86024 16.4351 5.38243C16.2371 4.90462 15.9469 4.47049 15.5812 4.10484ZM14.9821 9.07945L8.99992 15.1488L3.01562 9.07734C2.43881 8.49649 2.11571 7.7107 2.11711 6.8921C2.1185 6.0735 2.44428 5.28883 3.02307 4.70994C3.60186 4.13106 4.38648 3.80516 5.20508 3.80363C6.02368 3.80211 6.80952 4.12507 7.39046 4.70179C7.39388 4.70544 7.39765 4.70874 7.40171 4.71164L8.71234 5.93226C8.79043 6.00502 8.89319 6.04547 8.99992 6.04547C9.10665 6.04547 9.20941 6.00502 9.2875 5.93226L10.5981 4.71093C10.6022 4.70804 10.606 4.70474 10.6094 4.70109C10.8964 4.41231 11.2377 4.18304 11.6136 4.02643C11.9895 3.86982 12.3925 3.78895 12.7997 3.78846C13.2069 3.78797 13.6102 3.86787 13.9865 4.02358C14.3627 4.17929 14.7045 4.40774 14.9923 4.69583C15.2801 4.98392 15.5081 5.32599 15.6634 5.70241C15.8187 6.07884 15.8981 6.48221 15.8972 6.8894C15.8963 7.2966 15.8149 7.6996 15.6579 8.0753C15.5009 8.45099 15.2712 8.792 14.9821 9.07875V9.07945Z" fill="#1C1819"/>
</svg>
