<svg width="22" height="22" viewBox="0 0 22 22" fill="none" xmlns="http://www.w3.org/2000/svg">
<path d="M17.875 2.92188H4.125C3.80591 2.92188 3.49989 3.04863 3.27426 3.27426C3.04863 3.49989 2.92188 3.80591 2.92188 4.125V17.875C2.92188 18.1941 3.04863 18.5001 3.27426 18.7257C3.49989 18.9514 3.80591 19.0781 4.125 19.0781H17.875C18.1941 19.0781 18.5001 18.9514 18.7257 18.7257C18.9514 18.5001 19.0781 18.1941 19.0781 17.875V4.125C19.0781 3.80591 18.9514 3.49989 18.7257 3.27426C18.5001 3.04863 18.1941 2.92188 17.875 2.92188ZM18.0469 17.875C18.0469 17.9206 18.0288 17.9643 17.9965 17.9965C17.9643 18.0288 17.9206 18.0469 17.875 18.0469H4.125C4.07942 18.0469 4.0357 18.0288 4.00347 17.9965C3.97123 17.9643 3.95312 17.9206 3.95312 17.875V4.125C3.95312 4.07942 3.97123 4.0357 4.00347 4.00347C4.0357 3.97123 4.07942 3.95312 4.125 3.95312H17.875C17.9206 3.95312 17.9643 3.97123 17.9965 4.00347C18.0288 4.0357 18.0469 4.07942 18.0469 4.125V17.875ZM14.9531 11C14.9531 11.1368 14.8988 11.2679 14.8021 11.3646C14.7054 11.4613 14.5743 11.5156 14.4375 11.5156H11.5156V14.4375C11.5156 14.5743 11.4613 14.7054 11.3646 14.8021C11.2679 14.8988 11.1368 14.9531 11 14.9531C10.8632 14.9531 10.7321 14.8988 10.6354 14.8021C10.5387 14.7054 10.4844 14.5743 10.4844 14.4375V11.5156H7.5625C7.42575 11.5156 7.2946 11.4613 7.1979 11.3646C7.1012 11.2679 7.04688 11.1368 7.04688 11C7.04688 10.8632 7.1012 10.7321 7.1979 10.6354C7.2946 10.5387 7.42575 10.4844 7.5625 10.4844H10.4844V7.5625C10.4844 7.42575 10.5387 7.2946 10.6354 7.1979C10.7321 7.1012 10.8632 7.04688 11 7.04688C11.1368 7.04688 11.2679 7.1012 11.3646 7.1979C11.4613 7.2946 11.5156 7.42575 11.5156 7.5625V10.4844H14.4375C14.5743 10.4844 14.7054 10.5387 14.8021 10.6354C14.8988 10.7321 14.9531 10.8632 14.9531 11Z" fill="#0C4A60"/>
</svg>
