<svg width="18" height="18" viewBox="0 0 18 18" fill="none" xmlns="http://www.w3.org/2000/svg">
<path d="M2.44406 2.95313C2.38355 3.00558 2.33493 3.07035 2.30147 3.14311C2.268 3.21586 2.25045 3.29492 2.25 3.375V15.1875C2.25 15.3367 2.30926 15.4798 2.41475 15.5853C2.52024 15.6907 2.66332 15.75 2.8125 15.75C2.96168 15.75 3.10476 15.6907 3.21025 15.5853C3.31574 15.4798 3.375 15.3367 3.375 15.1875V12.0776C5.25867 10.5898 6.88148 11.392 8.75039 12.3173C9.90352 12.8876 11.1452 13.5021 12.477 13.5021C13.4564 13.5021 14.4837 13.1681 15.558 12.2365C15.6186 12.184 15.6672 12.1193 15.7006 12.0465C15.7341 11.9738 15.7517 11.8947 15.7521 11.8146V3.375C15.7519 3.26704 15.7205 3.16142 15.6619 3.07077C15.6032 2.98013 15.5197 2.90827 15.4214 2.86379C15.323 2.81931 15.2139 2.80408 15.1071 2.81992C15.0003 2.83576 14.9003 2.882 14.8191 2.95313C12.8503 4.6568 11.1825 3.83133 9.24961 2.87438C7.24711 1.88157 4.97672 0.758676 2.44406 2.95313ZM14.625 11.5488C12.7413 13.0366 11.1185 12.2337 9.24961 11.3091C7.4918 10.4407 5.53641 9.4718 3.375 10.7184V3.64149C5.25867 2.15368 6.88148 2.95594 8.75039 3.88055C10.5082 4.74891 12.4643 5.71782 14.625 4.47118V11.5488Z" fill="black"/>
</svg>
