<svg width="30" height="25" viewBox="0 0 30 25" fill="none" xmlns="http://www.w3.org/2000/svg">
<path d="M28.125 22.375H26.25V11.541C26.25 11.2815 26.1962 11.0248 26.0919 10.7872C25.9876 10.5495 25.8352 10.3362 25.6441 10.1605L16.2691 1.31519C16.2646 1.3112 16.2602 1.30689 16.2563 1.3023C15.9111 0.988397 15.4613 0.814453 14.9947 0.814453C14.5282 0.814453 14.0784 0.988397 13.7332 1.3023L13.7203 1.31519L4.35586 10.1605C4.16484 10.3362 4.01236 10.5495 3.90808 10.7872C3.80379 11.0248 3.74996 11.2815 3.75 11.541V22.375H1.875C1.62636 22.375 1.3879 22.4737 1.21209 22.6495C1.03627 22.8254 0.9375 23.0638 0.9375 23.3125C0.9375 23.5611 1.03627 23.7996 1.21209 23.9754C1.3879 24.1512 1.62636 24.25 1.875 24.25H28.125C28.3736 24.25 28.6121 24.1512 28.7879 23.9754C28.9637 23.7996 29.0625 23.5611 29.0625 23.3125C29.0625 23.0638 28.9637 22.8254 28.7879 22.6495C28.6121 22.4737 28.3736 22.375 28.125 22.375ZM17.8125 22.375H12.1875V16.75C12.1875 16.5013 12.2863 16.2629 12.4621 16.087C12.6379 15.9112 12.8764 15.8125 13.125 15.8125H16.875C17.1236 15.8125 17.3621 15.9112 17.5379 16.087C17.7137 16.2629 17.8125 16.5013 17.8125 16.75V22.375Z" fill="#0C4A60"/>
</svg>
