<svg width="24" height="24" viewBox="0 0 24 24" fill="none" xmlns="http://www.w3.org/2000/svg">
<path d="M21.2588 6.46886C21.2133 6.35642 21.1412 6.25669 21.0487 6.17822C20.9562 6.09975 20.8461 6.04489 20.7277 6.01834C20.6093 5.99179 20.4863 5.99435 20.3692 6.02579C20.252 6.05723 20.1442 6.11662 20.0551 6.19886L16.2769 9.68543L14.6616 9.33855L14.3147 7.72324L17.8013 3.94511C17.8836 3.85595 17.9429 3.74817 17.9744 3.63101C18.0058 3.51386 18.0084 3.39083 17.9818 3.27247C17.9553 3.15411 17.9004 3.04395 17.822 2.95145C17.7435 2.85895 17.6438 2.78686 17.5313 2.74136C16.5066 2.32683 15.3957 2.17032 14.2963 2.28557C13.1969 2.40082 12.1426 2.78431 11.2261 3.40235C10.3096 4.02039 9.55895 4.85405 9.04003 5.8301C8.52111 6.80614 8.24984 7.8947 8.25006 9.00011C8.24885 9.93356 8.44034 10.8572 8.81256 11.7132L3.16787 16.5939C3.15381 16.6051 3.14068 16.6182 3.12756 16.6304C2.56489 17.1931 2.24878 17.9562 2.24878 18.752C2.24878 19.146 2.32639 19.5362 2.47717 19.9002C2.62795 20.2642 2.84895 20.5949 3.12756 20.8736C3.40617 21.1522 3.73692 21.3732 4.10094 21.5239C4.46496 21.6747 4.85511 21.7523 5.24912 21.7523C6.04486 21.7523 6.80801 21.4362 7.37068 20.8736C7.38287 20.8614 7.396 20.8473 7.40725 20.8342L12.2869 15.1876C13.3148 15.6388 14.439 15.8266 15.5578 15.7338C16.6765 15.641 17.7545 15.2707 18.694 14.6564C19.6336 14.0421 20.4051 13.2031 20.9387 12.2155C21.4723 11.2278 21.7512 10.1227 21.7501 9.00011C21.7515 8.13254 21.5847 7.27291 21.2588 6.46886ZM15.0001 14.2501C14.1123 14.2489 13.2393 14.0231 12.4622 13.5939C12.3117 13.5107 12.1372 13.4818 11.9678 13.512C11.7985 13.5422 11.6447 13.6297 11.5322 13.7598L6.29162 19.8292C6.00803 20.0986 5.6304 20.2466 5.23926 20.2416C4.84812 20.2366 4.47441 20.079 4.1978 19.8024C3.9212 19.5258 3.7636 19.1521 3.75859 18.7609C3.75358 18.3698 3.90157 17.9921 4.171 17.7086L10.2357 12.4689C10.366 12.3563 10.4536 12.2024 10.4839 12.0328C10.5141 11.8633 10.485 11.6886 10.4016 11.5379C9.92352 10.6732 9.69915 9.69114 9.75431 8.7046C9.80946 7.71805 10.1419 6.7671 10.7134 5.96107C11.2849 5.15503 12.0723 4.52664 12.985 4.14813C13.8977 3.76962 14.8987 3.65635 15.8729 3.82136L12.9479 6.99105C12.8665 7.07934 12.8075 7.18588 12.7758 7.30171C12.7442 7.41753 12.7408 7.53927 12.766 7.65668L13.2966 10.1251C13.327 10.2663 13.3974 10.3957 13.4995 10.4978C13.6017 10.5999 13.7311 10.6704 13.8722 10.7007L16.3426 11.2314C16.46 11.2565 16.5817 11.2532 16.6975 11.2215C16.8134 11.1899 16.9199 11.1309 17.0082 11.0495L20.1779 8.12449C20.3042 8.87731 20.2651 9.64862 20.0632 10.3848C19.8612 11.1209 19.5014 11.8043 19.0086 12.3873C18.5158 12.9702 17.9019 13.4389 17.2097 13.7606C16.5174 14.0823 15.7634 14.2493 15.0001 14.2501Z" fill="black"/>
</svg>
