<svg width="24" height="24" viewBox="0 0 24 24" fill="none" xmlns="http://www.w3.org/2000/svg">
<path d="M22.5 9.1875C22.5016 9.90173 22.3616 10.6092 22.088 11.269C21.8144 11.9287 21.4128 12.5277 20.9062 13.0312L12.5344 21.5269C12.4646 21.5977 12.3814 21.654 12.2897 21.6924C12.1979 21.7308 12.0994 21.7506 12 21.7506C11.9005 21.7506 11.8021 21.7308 11.7103 21.6924C11.6186 21.654 11.5354 21.5977 11.4656 21.5269L3.09374 13.0312C2.07307 12.0118 1.49917 10.6287 1.49829 9.18613C1.49741 7.74356 2.06963 6.35973 3.08905 5.33906C4.10848 4.31839 5.49161 3.74449 6.93418 3.74361C8.37674 3.74274 9.76057 4.31495 10.7812 5.33437L12 6.47344L13.2272 5.33062C13.9888 4.57274 14.958 4.0575 16.0122 3.84997C17.0665 3.64243 18.1586 3.75189 19.1507 4.16454C20.1428 4.57718 20.9904 5.27451 21.5865 6.16849C22.1826 7.06246 22.5005 8.11301 22.5 9.1875Z" fill="#0C4A60"/>
</svg>
