<svg width="18" height="18" viewBox="0 0 18 18" fill="none" xmlns="http://www.w3.org/2000/svg">
<path d="M15.5813 4.10483C14.8433 3.36832 13.8435 2.95421 12.8009 2.95315C11.7582 2.9521 10.7576 3.36418 10.0181 4.0992L9.00001 5.04701L7.98188 4.0992C7.24296 3.3612 6.24112 2.94697 5.19678 2.94763C4.15244 2.94829 3.15113 3.36379 2.41313 4.10272C1.67514 4.84164 1.26091 5.84348 1.26157 6.88782C1.26223 7.93216 1.67772 8.93347 2.41665 9.67147L8.69978 16.046C8.73902 16.0858 8.78577 16.1173 8.83731 16.1389C8.88884 16.1604 8.94415 16.1715 9.00001 16.1715C9.05587 16.1715 9.11118 16.1604 9.16271 16.1389C9.21425 16.1173 9.261 16.0858 9.30024 16.046L15.5813 9.67428C15.947 9.30863 16.2372 8.8745 16.4352 8.39669C16.6331 7.91888 16.735 7.40675 16.735 6.88955C16.735 6.37235 16.6331 5.86022 16.4352 5.38241C16.2372 4.9046 15.947 4.47047 15.5813 4.10483ZM14.9822 9.07944L9.00001 15.1488L3.01571 9.07733C2.4389 8.49647 2.1158 7.71069 2.1172 6.89209C2.1186 6.07349 2.44437 5.28881 3.02316 4.70993C3.60195 4.13104 4.38658 3.80514 5.20517 3.80362C6.02377 3.80209 6.80961 4.12506 7.39056 4.70178C7.39397 4.70543 7.39774 4.70872 7.40181 4.71162L8.71243 5.93225C8.79052 6.005 8.89328 6.04545 9.00001 6.04545C9.10674 6.04545 9.2095 6.005 9.28759 5.93225L10.5982 4.71092C10.6023 4.70802 10.606 4.70472 10.6095 4.70108C10.8965 4.41229 11.2378 4.18302 11.6137 4.02641C11.9895 3.8698 12.3926 3.78894 12.7998 3.78845C13.207 3.78796 13.6103 3.86786 13.9866 4.02356C14.3628 4.17927 14.7046 4.40772 14.9924 4.69581C15.2802 4.98391 15.5082 5.32597 15.6635 5.7024C15.8188 6.07882 15.8982 6.48219 15.8973 6.88939C15.8963 7.29658 15.815 7.69958 15.658 8.07528C15.501 8.45098 15.2713 8.79198 14.9822 9.07873V9.07944Z" fill="#59595E"/>
</svg>
