<svg width="22" height="22" viewBox="0 0 22 22" fill="none" xmlns="http://www.w3.org/2000/svg">
<path d="M17.1875 19.25H12.937C13.651 18.6125 14.3244 17.9308 14.9531 17.209C17.3121 14.4959 18.5625 11.6359 18.5625 8.9375C18.5625 6.9318 17.7657 5.00825 16.3475 3.59001C14.9293 2.17176 13.0057 1.375 11 1.375C8.9943 1.375 7.07075 2.17176 5.65251 3.59001C4.23426 5.00825 3.4375 6.9318 3.4375 8.9375C3.4375 11.6359 4.68445 14.4959 7.04688 17.209C7.6756 17.9308 8.34895 18.6125 9.06297 19.25H4.8125C4.63016 19.25 4.4553 19.3224 4.32636 19.4514C4.19743 19.5803 4.125 19.7552 4.125 19.9375C4.125 20.1198 4.19743 20.2947 4.32636 20.4236C4.4553 20.5526 4.63016 20.625 4.8125 20.625H17.1875C17.3698 20.625 17.5447 20.5526 17.6736 20.4236C17.8026 20.2947 17.875 20.1198 17.875 19.9375C17.875 19.7552 17.8026 19.5803 17.6736 19.4514C17.5447 19.3224 17.3698 19.25 17.1875 19.25ZM11 6.1875C11.5439 6.1875 12.0756 6.34878 12.5278 6.65096C12.9801 6.95313 13.3325 7.38262 13.5407 7.88512C13.7488 8.38762 13.8033 8.94055 13.6972 9.474C13.5911 10.0074 13.3291 10.4974 12.9445 10.882C12.5599 11.2666 12.0699 11.5286 11.5365 11.6347C11.0031 11.7408 10.4501 11.6863 9.94762 11.4782C9.44512 11.27 9.01563 10.9176 8.71346 10.4653C8.41128 10.0131 8.25 9.4814 8.25 8.9375C8.25 8.20815 8.53973 7.50868 9.05546 6.99296C9.57118 6.47723 10.2707 6.1875 11 6.1875Z" fill="white"/>
</svg>
