<svg width="18" height="18" viewBox="0 0 18 18" fill="none" xmlns="http://www.w3.org/2000/svg">
<path d="M16.0959 3.49383C16.0286 3.44133 15.9501 3.40486 15.8665 3.3872C15.783 3.36953 15.6965 3.37113 15.6136 3.39188L11.3154 4.46625L7.00172 2.30906C6.88153 2.24912 6.74386 2.23415 6.61359 2.26688L2.11359 3.39188C1.9919 3.4223 1.88387 3.49251 1.80667 3.59138C1.72946 3.69024 1.68752 3.81207 1.6875 3.9375V14.0625C1.68751 14.148 1.707 14.2323 1.74449 14.3091C1.78198 14.3859 1.83648 14.4532 1.90386 14.5058C1.97123 14.5584 2.0497 14.595 2.13332 14.6127C2.21693 14.6304 2.30348 14.6289 2.38641 14.6081L6.68461 13.5338L10.9983 15.6909C11.0766 15.7295 11.1627 15.7497 11.25 15.75C11.296 15.75 11.3418 15.7443 11.3864 15.7331L15.8864 14.6081C16.0081 14.5777 16.1161 14.5075 16.1933 14.4086C16.2705 14.3098 16.3125 14.1879 16.3125 14.0625V3.9375C16.3125 3.85195 16.293 3.76752 16.2555 3.69064C16.218 3.61375 16.1634 3.54645 16.0959 3.49383ZM7.3125 3.72235L10.6875 5.40985V14.2777L7.3125 12.5902V3.72235ZM2.8125 4.37696L6.1875 3.53321V12.498L2.8125 13.3418V4.37696ZM15.1875 13.623L11.8125 14.4668V5.50196L15.1875 4.65821V13.623Z" fill="black"/>
</svg>
