<svg width="18" height="18" viewBox="0 0 18 18" fill="none" xmlns="http://www.w3.org/2000/svg">
<path d="M15.1875 2.8125H2.8125C2.51413 2.8125 2.22798 2.93103 2.017 3.142C1.80603 3.35298 1.6875 3.63913 1.6875 3.9375V15.1875C1.68755 15.2834 1.71211 15.3776 1.75883 15.4614C1.80556 15.5451 1.87291 15.6154 1.95448 15.6658C2.03606 15.7162 2.12915 15.7449 2.22493 15.7491C2.3207 15.7534 2.41598 15.7331 2.50172 15.6902L4.5 14.6911L6.49828 15.6902C6.57643 15.7293 6.66261 15.7497 6.75 15.7497C6.83739 15.7497 6.92357 15.7293 7.00172 15.6902L9 14.6911L10.9983 15.6902C11.0764 15.7293 11.1626 15.7497 11.25 15.7497C11.3374 15.7497 11.4236 15.7293 11.5017 15.6902L13.5 14.6911L15.4983 15.6902C15.584 15.7331 15.6793 15.7534 15.7751 15.7491C15.8708 15.7449 15.9639 15.7162 16.0455 15.6658C16.1271 15.6154 16.1944 15.5451 16.2412 15.4614C16.2879 15.3776 16.3124 15.2834 16.3125 15.1875V3.9375C16.3125 3.63913 16.194 3.35298 15.983 3.142C15.772 2.93103 15.4859 2.8125 15.1875 2.8125ZM15.1875 14.2777L13.7517 13.5591C13.6736 13.52 13.5874 13.4996 13.5 13.4996C13.4126 13.4996 13.3264 13.52 13.2483 13.5591L11.25 14.5589L9.25172 13.5591C9.17357 13.52 9.08739 13.4996 9 13.4996C8.91261 13.4996 8.82643 13.52 8.74828 13.5591L6.75 14.5589L4.75172 13.5591C4.67357 13.52 4.58739 13.4996 4.5 13.4996C4.41261 13.4996 4.32643 13.52 4.24828 13.5591L2.8125 14.2777V3.9375H15.1875V14.2777ZM9.5625 7.875C9.5625 7.72582 9.62176 7.58274 9.72725 7.47725C9.83274 7.37176 9.97582 7.3125 10.125 7.3125H13.5C13.6492 7.3125 13.7923 7.37176 13.8977 7.47725C14.0032 7.58274 14.0625 7.72582 14.0625 7.875C14.0625 8.02418 14.0032 8.16726 13.8977 8.27275C13.7923 8.37824 13.6492 8.4375 13.5 8.4375H10.125C9.97582 8.4375 9.83274 8.37824 9.72725 8.27275C9.62176 8.16726 9.5625 8.02418 9.5625 7.875ZM9.5625 10.125C9.5625 9.97582 9.62176 9.83274 9.72725 9.72725C9.83274 9.62176 9.97582 9.5625 10.125 9.5625H13.5C13.6492 9.5625 13.7923 9.62176 13.8977 9.72725C14.0032 9.83274 14.0625 9.97582 14.0625 10.125C14.0625 10.2742 14.0032 10.4173 13.8977 10.5227C13.7923 10.6282 13.6492 10.6875 13.5 10.6875H10.125C9.97582 10.6875 9.83274 10.6282 9.72725 10.5227C9.62176 10.4173 9.5625 10.2742 9.5625 10.125ZM4.5 11.8125H7.875C8.02418 11.8125 8.16726 11.7532 8.27275 11.6477C8.37824 11.5423 8.4375 11.3992 8.4375 11.25V6.75C8.4375 6.60082 8.37824 6.45774 8.27275 6.35225C8.16726 6.24676 8.02418 6.1875 7.875 6.1875H4.5C4.35082 6.1875 4.20774 6.24676 4.10225 6.35225C3.99676 6.45774 3.9375 6.60082 3.9375 6.75V11.25C3.9375 11.3992 3.99676 11.5423 4.10225 11.6477C4.20774 11.7532 4.35082 11.8125 4.5 11.8125ZM5.0625 7.3125H7.3125V10.6875H5.0625V7.3125Z" fill="#1C1819"/>
</svg>
