<svg width="18" height="18" viewBox="0 0 18 18" fill="none" xmlns="http://www.w3.org/2000/svg">
<path d="M11.8125 7.875C11.8125 8.02418 11.7532 8.16726 11.6477 8.27275C11.5423 8.37824 11.3992 8.4375 11.25 8.4375H6.75C6.60082 8.4375 6.45774 8.37824 6.35225 8.27275C6.24676 8.16726 6.1875 8.02418 6.1875 7.875C6.1875 7.72582 6.24676 7.58274 6.35225 7.47725C6.45774 7.37176 6.60082 7.3125 6.75 7.3125H11.25C11.3992 7.3125 11.5423 7.37176 11.6477 7.47725C11.7532 7.58274 11.8125 7.72582 11.8125 7.875ZM11.25 9.5625H6.75C6.60082 9.5625 6.45774 9.62176 6.35225 9.72725C6.24676 9.83274 6.1875 9.97582 6.1875 10.125C6.1875 10.2742 6.24676 10.4173 6.35225 10.5227C6.45774 10.6282 6.60082 10.6875 6.75 10.6875H11.25C11.3992 10.6875 11.5423 10.6282 11.6477 10.5227C11.7532 10.4173 11.8125 10.2742 11.8125 10.125C11.8125 9.97582 11.7532 9.83274 11.6477 9.72725C11.5423 9.62176 11.3992 9.5625 11.25 9.5625ZM16.3125 8.71875C16.3105 10.5829 15.569 12.3702 14.2508 13.6883C12.9327 15.0065 11.1454 15.748 9.28125 15.75H3.3518C3.0597 15.7496 2.77967 15.6334 2.57312 15.4269C2.36657 15.2203 2.25037 14.9403 2.25 14.6482V8.71875C2.25 6.85395 2.99079 5.06552 4.30941 3.74691C5.62802 2.42829 7.41645 1.6875 9.28125 1.6875C11.1461 1.6875 12.9345 2.42829 14.2531 3.74691C15.5717 5.06552 16.3125 6.85395 16.3125 8.71875ZM15.1875 8.71875C15.1875 7.15232 14.5652 5.65004 13.4576 4.5424C12.35 3.43476 10.8477 2.8125 9.28125 2.8125C7.71482 2.8125 6.21254 3.43476 5.1049 4.5424C3.99726 5.65004 3.375 7.15232 3.375 8.71875V14.625H9.28125C10.8472 14.6233 12.3485 14.0005 13.4557 12.8932C14.563 11.786 15.1858 10.2847 15.1875 8.71875Z" fill="#1C1819"/>
</svg>
