<svg width="18" height="18" viewBox="0 0 18 18" fill="none" xmlns="http://www.w3.org/2000/svg">
<path d="M16.7041 9.4057L14.4541 3.7807C14.417 3.68792 14.3481 3.61134 14.2598 3.56459C14.1715 3.51785 14.0694 3.50399 13.9718 3.52547L9.42188 4.53656V2.8125C9.42188 2.70061 9.37743 2.59331 9.29831 2.51419C9.21919 2.43507 9.11189 2.39063 9 2.39062C8.88811 2.39063 8.78081 2.43507 8.70169 2.51419C8.62257 2.59331 8.57812 2.70061 8.57812 2.8125V4.7243L3.84609 5.77898C3.77906 5.79388 3.71667 5.82491 3.66434 5.86939C3.61202 5.91387 3.57135 5.97045 3.54586 6.03422L1.29586 11.6592C1.27648 11.708 1.26623 11.76 1.26562 11.8125C1.26562 13.3495 2.90461 13.9219 3.9375 13.9219C4.97039 13.9219 6.60938 13.3495 6.60938 11.8125C6.6092 11.7588 6.59895 11.7056 6.57914 11.6557L4.51336 6.49195L8.57812 5.58844V14.7656H7.3125C7.20061 14.7656 7.09331 14.8101 7.01419 14.8892C6.93507 14.9683 6.89062 15.0756 6.89062 15.1875C6.89062 15.2994 6.93507 15.4067 7.01419 15.4858C7.09331 15.5649 7.20061 15.6094 7.3125 15.6094H10.6875C10.7994 15.6094 10.9067 15.5649 10.9858 15.4858C11.0649 15.4067 11.1094 15.2994 11.1094 15.1875C11.1094 15.0756 11.0649 14.9683 10.9858 14.8892C10.9067 14.8101 10.7994 14.7656 10.6875 14.7656H9.42188V5.4007L13.3741 4.5225L11.4209 9.4057C11.4011 9.45562 11.3908 9.5088 11.3906 9.5625C11.3906 11.0995 13.0296 11.6719 14.0625 11.6719C15.0954 11.6719 16.7344 11.0995 16.7344 9.5625C16.7342 9.5088 16.7239 9.45562 16.7041 9.4057ZM3.9375 13.0781C3.50757 13.0748 3.08522 12.9646 2.70844 12.7575C2.33086 12.5374 2.13539 12.2527 2.11148 11.8877L3.93961 7.32375L5.76773 11.8877C5.69953 12.8566 4.40016 13.0781 3.9375 13.0781ZM14.0625 10.8281C13.6326 10.8248 13.2102 10.7146 12.8334 10.5075C12.4559 10.2874 12.2604 10.0027 12.2365 9.63773L14.0646 5.07375L15.8927 9.63773C15.8245 10.6066 14.5252 10.8281 14.0625 10.8281Z" fill="#1C1819"/>
</svg>
