<svg width="18" height="18" viewBox="0 0 18 18" fill="none" xmlns="http://www.w3.org/2000/svg">
<path d="M8.99928 5.62499C8.33177 5.62499 7.67925 5.82293 7.12423 6.19378C6.56921 6.56463 6.13663 7.09173 5.88119 7.70843C5.62574 8.32513 5.5589 9.00373 5.68913 9.65842C5.81935 10.3131 6.14079 10.9145 6.61279 11.3865C7.0848 11.8585 7.68616 12.1799 8.34085 12.3101C8.99554 12.4404 9.67414 12.3735 10.2908 12.1181C10.9075 11.8626 11.4346 11.4301 11.8055 10.875C12.1763 10.32 12.3743 9.6675 12.3743 8.99999C12.3733 8.10517 12.0175 7.24726 11.3847 6.61453C10.752 5.9818 9.8941 5.62592 8.99928 5.62499ZM8.99928 11.25C8.55427 11.25 8.11926 11.118 7.74925 10.8708C7.37924 10.6236 7.09085 10.2722 6.92055 9.86102C6.75025 9.44989 6.7057 8.99749 6.79251 8.56103C6.87933 8.12458 7.09362 7.72367 7.40829 7.409C7.72296 7.09433 8.12387 6.88004 8.56033 6.79322C8.99678 6.7064 9.44918 6.75096 9.86032 6.92126C10.2715 7.09156 10.6229 7.37994 10.8701 7.74995C11.1173 8.11997 11.2493 8.55498 11.2493 8.99999C11.2493 9.59672 11.0122 10.169 10.5903 10.591C10.1683 11.0129 9.59602 11.25 8.99928 11.25ZM16.7294 7.53819C16.7138 7.45898 16.6812 7.38407 16.634 7.31855C16.5868 7.25304 16.5261 7.19845 16.4559 7.1585L14.3585 5.96319L14.3501 3.59928C14.3498 3.51787 14.3319 3.43748 14.2975 3.36368C14.2632 3.28987 14.2132 3.2244 14.1511 3.17178C13.3902 2.52821 12.5141 2.03502 11.5692 1.71842C11.4948 1.69324 11.4159 1.68392 11.3377 1.69106C11.2595 1.69821 11.1836 1.72166 11.115 1.75991L8.99928 2.94256L6.88147 1.7578C6.81281 1.71933 6.73684 1.69571 6.65848 1.68844C6.58012 1.68117 6.50111 1.69043 6.42655 1.71561C5.48235 2.03452 4.6072 2.52959 3.84748 3.1746C3.78544 3.22713 3.73553 3.29249 3.70118 3.36617C3.66683 3.43985 3.64885 3.5201 3.6485 3.60139L3.63795 5.96741L1.54053 7.16272C1.47036 7.20267 1.40961 7.25726 1.36241 7.32277C1.31522 7.38829 1.28268 7.4632 1.26701 7.54241C1.07506 8.50701 1.07506 9.49999 1.26701 10.4646C1.28268 10.5438 1.31522 10.6187 1.36241 10.6842C1.40961 10.7497 1.47036 10.8043 1.54053 10.8443L3.63795 12.0396L3.64639 14.4035C3.64664 14.4849 3.66457 14.5653 3.69892 14.6391C3.73328 14.7129 3.78324 14.7784 3.84537 14.831C4.6062 15.4746 5.48236 15.9678 6.42725 16.2844C6.50166 16.3095 6.58052 16.3189 6.65875 16.3117C6.73698 16.3046 6.81285 16.2811 6.88147 16.2429L8.99928 15.0574L11.1171 16.2422C11.2009 16.2889 11.2954 16.3131 11.3913 16.3125C11.4527 16.3125 11.5138 16.3025 11.572 16.283C12.5161 15.9645 13.3912 15.4699 14.1511 14.8254C14.2131 14.7728 14.263 14.7075 14.2974 14.6338C14.3317 14.5601 14.3497 14.4799 14.3501 14.3986L14.3606 12.0326L16.458 10.8373C16.5282 10.7973 16.5889 10.7427 16.6361 10.6772C16.6833 10.6117 16.7159 10.5368 16.7315 10.4576C16.9224 9.49373 16.9217 8.50175 16.7294 7.53819ZM15.6747 9.9928L13.6659 11.1354C13.5779 11.1854 13.505 11.2583 13.455 11.3463C13.4142 11.4166 13.3713 11.4912 13.3277 11.5615C13.2719 11.6501 13.2422 11.7527 13.2419 11.8575L13.2314 14.1251C12.6914 14.5491 12.0899 14.8882 11.4476 15.1305L9.42115 14.0013C9.33703 13.9548 9.24238 13.9306 9.14623 13.931H9.13287C9.04779 13.931 8.96201 13.931 8.87694 13.931C8.77631 13.9285 8.67682 13.9528 8.58865 14.0013L6.56084 15.1333C5.91714 14.8928 5.31394 14.5554 4.77209 14.1328L4.76436 11.8687C4.76401 11.7638 4.7343 11.661 4.67858 11.572C4.63498 11.5017 4.59209 11.4314 4.55201 11.3569C4.50232 11.2675 4.42945 11.1932 4.34108 11.1417L2.33014 9.99632C2.22608 9.33806 2.22608 8.66754 2.33014 8.00928L4.33545 6.8646C4.42347 6.81455 4.49634 6.74167 4.54639 6.65366C4.58717 6.58335 4.63006 6.50882 4.67365 6.4385C4.72946 6.34983 4.75918 6.24725 4.75944 6.14249L4.76998 3.87491C5.30993 3.45089 5.91148 3.11182 6.55381 2.86944L8.5774 3.99866C8.66547 4.04748 8.76503 4.07176 8.86569 4.06897C8.95076 4.06897 9.03655 4.06897 9.12162 4.06897C9.22225 4.07149 9.32174 4.04722 9.4099 3.99866L11.4377 2.86663C12.0814 3.10715 12.6846 3.44455 13.2265 3.86717L13.2342 6.13124C13.2345 6.23621 13.2643 6.33899 13.32 6.42796C13.3636 6.49827 13.4065 6.56858 13.4465 6.64311C13.4962 6.73249 13.5691 6.80681 13.6575 6.85827L15.6684 8.00366C15.7739 8.66242 15.7751 9.33367 15.6719 9.9928H15.6747Z" fill="#1C1819"/>
</svg>
