<svg width="20" height="20" viewBox="0 0 20 20" fill="none" xmlns="http://www.w3.org/2000/svg">
<path d="M18.1244 9.9914C18.125 10.2141 18.066 10.4329 17.9537 10.6252C17.8413 10.8175 17.6796 10.9763 17.4853 11.0851L4.36738 18.5859C4.1789 18.6928 3.96607 18.7493 3.74941 18.75C3.5496 18.7496 3.3528 18.7013 3.17551 18.6091C2.99822 18.517 2.8456 18.3837 2.73044 18.2204C2.61528 18.0571 2.54095 17.8686 2.51366 17.6707C2.48638 17.4727 2.50694 17.2712 2.57363 17.0828L4.71035 10.8367C4.7314 10.7749 4.77128 10.7213 4.82439 10.6833C4.87749 10.6453 4.94115 10.6249 5.00644 10.625H10.6244C10.7101 10.6252 10.7949 10.6078 10.8736 10.5738C10.9522 10.5398 11.023 10.49 11.0817 10.4275C11.1403 10.3651 11.1854 10.2912 11.2143 10.2105C11.2431 10.1298 11.2551 10.0441 11.2494 9.95859C11.2352 9.79787 11.1609 9.64844 11.0412 9.54023C10.9215 9.43201 10.7654 9.37299 10.6041 9.37499H5.01191C4.94672 9.37511 4.88313 9.35484 4.83003 9.31701C4.77694 9.27919 4.737 9.22571 4.71581 9.16406L2.57206 2.91406C2.48858 2.67456 2.47993 2.41534 2.54725 2.17082C2.61457 1.92629 2.75468 1.70803 2.94898 1.54501C3.14327 1.38199 3.38256 1.28194 3.63507 1.25813C3.88757 1.23432 4.14135 1.28789 4.36269 1.41171L17.4877 8.90312C17.6807 9.01182 17.8414 9.16987 17.9533 9.3611C18.0652 9.55232 18.1242 9.76985 18.1244 9.9914Z" fill="#0C4A60"/>
</svg>
