<svg width="26" height="26" viewBox="0 0 26 26" fill="none" xmlns="http://www.w3.org/2000/svg">
<rect width="26" height="26" rx="4" fill="#FF6C2C"/>
<path d="M19.1875 7.375H6.8125C6.66332 7.375 6.52024 7.43426 6.41475 7.53975C6.30926 7.64524 6.25 7.78832 6.25 7.9375C6.25 8.08668 6.30926 8.22976 6.41475 8.33525C6.52024 8.44074 6.66332 8.5 6.8125 8.5H7.375V18.625C7.375 18.9234 7.49353 19.2095 7.7045 19.4205C7.91548 19.6315 8.20163 19.75 8.5 19.75H17.5C17.7984 19.75 18.0845 19.6315 18.2955 19.4205C18.5065 19.2095 18.625 18.9234 18.625 18.625V8.5H19.1875C19.3367 8.5 19.4798 8.44074 19.5852 8.33525C19.6907 8.22976 19.75 8.08668 19.75 7.9375C19.75 7.78832 19.6907 7.64524 19.5852 7.53975C19.4798 7.43426 19.3367 7.375 19.1875 7.375ZM17.5 18.625H8.5V8.5H17.5V18.625ZM9.625 5.6875C9.625 5.53832 9.68426 5.39524 9.78975 5.28975C9.89524 5.18426 10.0383 5.125 10.1875 5.125H15.8125C15.9617 5.125 16.1048 5.18426 16.2102 5.28975C16.3157 5.39524 16.375 5.53832 16.375 5.6875C16.375 5.83668 16.3157 5.97976 16.2102 6.08525C16.1048 6.19074 15.9617 6.25 15.8125 6.25H10.1875C10.0383 6.25 9.89524 6.19074 9.78975 6.08525C9.68426 5.97976 9.625 5.83668 9.625 5.6875Z" fill="white"/>
</svg>
