<svg width="17" height="17" viewBox="0 0 17 17" fill="none" xmlns="http://www.w3.org/2000/svg">
<path d="M14.8563 7.8293L13.3694 2.37668C13.3081 2.15177 13.1745 1.95328 12.9892 1.81179C12.8039 1.67031 12.5772 1.59369 12.3441 1.59375H4.65559C4.42246 1.59369 4.19579 1.67031 4.01051 1.81179C3.82522 1.95328 3.69162 2.15177 3.63027 2.37668L2.14344 7.8293C2.11885 7.92064 2.11885 8.01686 2.14344 8.1082L3.63027 13.5608C3.69162 13.7857 3.82522 13.9842 4.01051 14.1257C4.19579 14.2672 4.42246 14.3438 4.65559 14.3438H5.31235L4.3561 15.6187C4.31424 15.6746 4.28378 15.7381 4.26647 15.8057C4.24915 15.8732 4.24532 15.9436 4.25518 16.0126C4.26505 16.0817 4.28842 16.1481 4.32397 16.2082C4.35951 16.2682 4.40653 16.3206 4.46235 16.3625C4.51816 16.4044 4.58167 16.4348 4.64925 16.4521C4.71683 16.4694 4.78716 16.4733 4.85623 16.4634C4.92529 16.4535 4.99173 16.4302 5.05176 16.3946C5.11179 16.3591 5.16424 16.3121 5.2061 16.2563L6.64047 14.3438H10.3592L11.7936 16.2563C11.8781 16.369 12.004 16.4435 12.1435 16.4634C12.2829 16.4833 12.4246 16.447 12.5373 16.3625C12.6501 16.278 12.7246 16.1521 12.7445 16.0126C12.7644 15.8732 12.7281 15.7315 12.6436 15.6187L11.6873 14.3438H12.3441C12.5772 14.3438 12.8039 14.2672 12.9892 14.1257C13.1745 13.9842 13.3081 13.7857 13.3694 13.5608L14.8563 8.1082C14.8808 8.01686 14.8808 7.92064 14.8563 7.8293ZM4.65559 2.65625H12.3441L13.6795 7.54973L8.49985 8.49137L3.32016 7.54973L4.65559 2.65625ZM3.39387 8.64211L7.9686 9.47484V13.2812H4.65559L3.39387 8.64211ZM12.3441 13.2812H9.0311V9.47484L13.6091 8.64211L12.3441 13.2812ZM5.8436 5.84375C5.8436 5.70285 5.89957 5.56773 5.99919 5.4681C6.09882 5.36847 6.23395 5.3125 6.37485 5.3125H10.6248C10.7657 5.3125 10.9009 5.36847 11.0005 5.4681C11.1001 5.56773 11.1561 5.70285 11.1561 5.84375C11.1561 5.98465 11.1001 6.11977 11.0005 6.2194C10.9009 6.31903 10.7657 6.375 10.6248 6.375H6.37485C6.23395 6.375 6.09882 6.31903 5.99919 6.2194C5.89957 6.11977 5.8436 5.98465 5.8436 5.84375Z" fill="#59595E"/>
</svg>
