<svg width="17" height="17" viewBox="0 0 17 17" fill="none" xmlns="http://www.w3.org/2000/svg">
<path d="M10.625 1.0625C9.7865 1.06325 8.96006 1.2623 8.21316 1.6434C7.46626 2.02449 6.82008 2.57682 6.32738 3.2553C5.83468 3.93378 5.50942 4.71917 5.37817 5.54733C5.24691 6.3755 5.31338 7.22297 5.57215 8.02055L1.74914 11.8429C1.69982 11.8923 1.66072 11.9509 1.63405 12.0154C1.60739 12.0799 1.5937 12.149 1.59375 12.2188V14.875C1.59375 15.0159 1.64972 15.151 1.74935 15.2507C1.84898 15.3503 1.9841 15.4062 2.125 15.4062H4.78125C4.92215 15.4062 5.05727 15.3503 5.1569 15.2507C5.25653 15.151 5.3125 15.0159 5.3125 14.875V13.8125H6.375C6.5159 13.8125 6.65102 13.7565 6.75065 13.6569C6.85028 13.5573 6.90625 13.4221 6.90625 13.2812V12.2188H7.96875C8.03854 12.2188 8.10765 12.2051 8.17214 12.1784C8.23663 12.1518 8.29524 12.1127 8.34461 12.0634L8.97945 11.4279C9.7096 11.6649 10.4825 11.7409 11.2448 11.6506C12.0071 11.5603 12.7409 11.3059 13.3954 10.9048C14.05 10.5038 14.6099 9.96562 15.0365 9.32741C15.4632 8.68921 15.7464 7.96613 15.8668 7.20795C15.9871 6.44977 15.9418 5.67452 15.7338 4.93556C15.5258 4.19661 15.1601 3.51151 14.6619 2.92744C14.1637 2.34338 13.5449 1.87422 12.848 1.55227C12.1511 1.23032 11.3927 1.06323 10.625 1.0625ZM10.625 10.625C10.0872 10.6259 9.5542 10.5243 9.05449 10.3255C8.95674 10.2831 8.84849 10.271 8.7438 10.2909C8.63912 10.3108 8.54283 10.3617 8.46746 10.4371L7.74895 11.1562H6.375C6.2341 11.1562 6.09898 11.2122 5.99935 11.3118C5.89972 11.4115 5.84375 11.5466 5.84375 11.6875V12.75H4.78125C4.64035 12.75 4.50523 12.806 4.4056 12.9056C4.30597 13.0052 4.25 13.1404 4.25 13.2812V14.3438H2.65625V12.4386L6.56293 8.53254C6.63826 8.45717 6.68917 8.36088 6.70907 8.2562C6.72896 8.15151 6.71692 8.04326 6.67449 7.94551C6.33854 7.10072 6.28233 6.17046 6.51414 5.29137C6.74594 4.41228 7.25354 3.63069 7.96237 3.0614C8.6712 2.4921 9.5439 2.16511 10.4523 2.12846C11.3607 2.0918 12.2569 2.3474 13.0093 2.85773C13.7617 3.36805 14.3306 4.1062 14.6325 4.96375C14.9344 5.82131 14.9533 6.75307 14.6866 7.62218C14.4198 8.49129 13.8813 9.25195 13.1503 9.79243C12.4192 10.3329 11.5341 10.6247 10.625 10.625ZM12.75 5.04688C12.75 5.20448 12.7033 5.35855 12.6157 5.48959C12.5281 5.62064 12.4037 5.72278 12.2581 5.78309C12.1125 5.84341 11.9522 5.85919 11.7977 5.82844C11.6431 5.79769 11.5011 5.7218 11.3896 5.61035C11.2782 5.49891 11.2023 5.35692 11.1716 5.20234C11.1408 5.04776 11.1566 4.88753 11.2169 4.74192C11.2772 4.59631 11.3794 4.47186 11.5104 4.3843C11.6415 4.29674 11.7955 4.25 11.9531 4.25C12.1645 4.25 12.3672 4.33396 12.5166 4.4834C12.666 4.63284 12.75 4.83553 12.75 5.04688Z" fill="#59595E"/>
</svg>
