<svg width="17" height="17" viewBox="0 0 17 17" fill="none" xmlns="http://www.w3.org/2000/svg">
<path d="M13.2812 14.875H9.9968C10.5485 14.3823 11.0689 13.8556 11.5547 13.2979C13.3775 11.2014 14.3438 8.99141 14.3438 6.90625C14.3438 5.35639 13.7281 3.87001 12.6322 2.77409C11.5362 1.67818 10.0499 1.0625 8.5 1.0625C6.95014 1.0625 5.46376 1.67818 4.36784 2.77409C3.27193 3.87001 2.65625 5.35639 2.65625 6.90625C2.65625 8.99141 3.6198 11.2014 5.44531 13.2979C5.93115 13.8556 6.45146 14.3823 7.0032 14.875H3.71875C3.57785 14.875 3.44273 14.931 3.3431 15.0306C3.24347 15.1302 3.1875 15.2654 3.1875 15.4062C3.1875 15.5471 3.24347 15.6823 3.3431 15.7819C3.44273 15.8815 3.57785 15.9375 3.71875 15.9375H13.2812C13.4221 15.9375 13.5573 15.8815 13.6569 15.7819C13.7565 15.6823 13.8125 15.5471 13.8125 15.4062C13.8125 15.2654 13.7565 15.1302 13.6569 15.0306C13.5573 14.931 13.4221 14.875 13.2812 14.875ZM3.71875 6.90625C3.71875 5.63818 4.22249 4.42205 5.11915 3.5254C6.0158 2.62874 7.23193 2.125 8.5 2.125C9.76807 2.125 10.9842 2.62874 11.8809 3.5254C12.7775 4.42205 13.2812 5.63818 13.2812 6.90625C13.2812 10.7067 9.5977 13.8789 8.5 14.7422C7.4023 13.8789 3.71875 10.7067 3.71875 6.90625ZM11.1562 6.90625C11.1562 6.38089 11.0005 5.86733 10.7086 5.43052C10.4167 4.9937 10.0019 4.65324 9.5165 4.45219C9.03114 4.25115 8.49705 4.19855 7.98179 4.30104C7.46653 4.40353 6.99323 4.65651 6.62175 5.028C6.25026 5.39948 5.99728 5.87278 5.89479 6.38804C5.7923 6.9033 5.8449 7.43739 6.04594 7.92275C6.24699 8.40812 6.58745 8.82297 7.02427 9.11484C7.46108 9.40671 7.97464 9.5625 8.5 9.5625C9.20448 9.5625 9.88011 9.28265 10.3783 8.7845C10.8764 8.28636 11.1562 7.61073 11.1562 6.90625ZM6.90625 6.90625C6.90625 6.59104 6.99972 6.2829 7.17485 6.02081C7.34997 5.75872 7.59888 5.55444 7.8901 5.43382C8.18132 5.31319 8.50177 5.28163 8.81093 5.34312C9.12008 5.40462 9.40406 5.55641 9.62695 5.7793C9.84984 6.00219 10.0016 6.28617 10.0631 6.59532C10.1246 6.90448 10.0931 7.22493 9.97243 7.51615C9.85181 7.80737 9.64753 8.05628 9.38544 8.2314C9.12335 8.40653 8.81521 8.5 8.5 8.5C8.07731 8.5 7.67193 8.33209 7.37305 8.0332C7.07416 7.73432 6.90625 7.32894 6.90625 6.90625Z" fill="#59595E"/>
</svg>
