<svg width="17" height="17" viewBox="0 0 17 17" fill="none" xmlns="http://www.w3.org/2000/svg">
<path d="M14.875 3.1875H2.125C1.9841 3.1875 1.84898 3.24347 1.74935 3.3431C1.64972 3.44273 1.59375 3.57785 1.59375 3.71875V13.2812C1.59375 13.4221 1.64972 13.5573 1.74935 13.6569C1.84898 13.7565 1.9841 13.8125 2.125 13.8125H14.875C15.0159 13.8125 15.151 13.7565 15.2507 13.6569C15.3503 13.5573 15.4062 13.4221 15.4062 13.2812V3.71875C15.4062 3.57785 15.3503 3.44273 15.2507 3.3431C15.151 3.24347 15.0159 3.1875 14.875 3.1875ZM5.84375 9.5625V7.4375H11.1562V9.5625H5.84375ZM2.65625 9.5625V7.4375H4.78125V9.5625H2.65625ZM12.2188 7.4375H14.3438V9.5625H12.2188V7.4375ZM14.3438 6.375H9.03125V4.25H14.3438V6.375ZM7.96875 4.25V6.375H2.65625V4.25H7.96875ZM2.65625 10.625H7.96875V12.75H2.65625V10.625ZM9.03125 12.75V10.625H14.3438V12.75H9.03125Z" fill="#59595E"/>
</svg>
