<svg width="28" height="28" viewBox="0 0 28 28" fill="none" xmlns="http://www.w3.org/2000/svg">
<path d="M21 7.875C21 8.10706 20.9078 8.32962 20.7437 8.49372C20.5796 8.65781 20.3571 8.75 20.125 8.75H17.5C17.2679 8.75 17.0454 8.65781 16.8813 8.49372C16.7172 8.32962 16.625 8.10706 16.625 7.875C16.625 7.64294 16.7172 7.42038 16.8813 7.25628C17.0454 7.09219 17.2679 7 17.5 7H20.125C20.3571 7 20.5796 7.09219 20.7437 7.25628C20.9078 7.42038 21 7.64294 21 7.875ZM20.125 10.5H17.5C17.2679 10.5 17.0454 10.5922 16.8813 10.7563C16.7172 10.9204 16.625 11.1429 16.625 11.375C16.625 11.6071 16.7172 11.8296 16.8813 11.9937C17.0454 12.1578 17.2679 12.25 17.5 12.25H20.125C20.3571 12.25 20.5796 12.1578 20.7437 11.9937C20.9078 11.8296 21 11.6071 21 11.375C21 11.1429 20.9078 10.9204 20.7437 10.7563C20.5796 10.5922 20.3571 10.5 20.125 10.5ZM7.875 8.75H10.5C10.7321 8.75 10.9546 8.65781 11.1187 8.49372C11.2828 8.32962 11.375 8.10706 11.375 7.875C11.375 7.64294 11.2828 7.42038 11.1187 7.25628C10.9546 7.09219 10.7321 7 10.5 7H7.875C7.64294 7 7.42038 7.09219 7.25628 7.25628C7.09219 7.42038 7 7.64294 7 7.875C7 8.10706 7.09219 8.32962 7.25628 8.49372C7.42038 8.65781 7.64294 8.75 7.875 8.75ZM10.5 10.5H7.875C7.64294 10.5 7.42038 10.5922 7.25628 10.7563C7.09219 10.9204 7 11.1429 7 11.375C7 11.6071 7.09219 11.8296 7.25628 11.9937C7.42038 12.1578 7.64294 12.25 7.875 12.25H10.5C10.7321 12.25 10.9546 12.1578 11.1187 11.9937C11.2828 11.8296 11.375 11.6071 11.375 11.375C11.375 11.1429 11.2828 10.9204 11.1187 10.7563C10.9546 10.5922 10.7321 10.5 10.5 10.5ZM24.5 5.25V24.5C24.5 24.7321 24.4078 24.9546 24.2437 25.1187C24.0796 25.2828 23.8571 25.375 23.625 25.375C23.3929 25.375 23.1704 25.2828 23.0063 25.1187C22.8422 24.9546 22.75 24.7321 22.75 24.5V22.75H14.875V24.5C14.875 24.7321 14.7828 24.9546 14.6187 25.1187C14.4546 25.2828 14.2321 25.375 14 25.375C13.7679 25.375 13.5454 25.2828 13.3813 25.1187C13.2172 24.9546 13.125 24.7321 13.125 24.5V22.75H5.25V24.5C5.25 24.7321 5.15781 24.9546 4.99372 25.1187C4.82962 25.2828 4.60706 25.375 4.375 25.375C4.14294 25.375 3.92038 25.2828 3.75628 25.1187C3.59219 24.9546 3.5 24.7321 3.5 24.5V5.25C3.5 4.78587 3.68437 4.34075 4.01256 4.01256C4.34075 3.68437 4.78587 3.5 5.25 3.5H22.75C23.2141 3.5 23.6592 3.68437 23.9874 4.01256C24.3156 4.34075 24.5 4.78587 24.5 5.25ZM13.125 21V5.25H5.25V21H13.125ZM14.875 21H22.75V5.25H14.875V21Z" fill="black"/>
</svg>
