<svg width="28" height="28" viewBox="0 0 28 28" fill="none" xmlns="http://www.w3.org/2000/svg">
<path d="M22.75 3.5H20.125V2.625C20.125 2.39294 20.0328 2.17038 19.8687 2.00628C19.7046 1.84219 19.4821 1.75 19.25 1.75C19.0179 1.75 18.7954 1.84219 18.6313 2.00628C18.4672 2.17038 18.375 2.39294 18.375 2.625V3.5H9.625V2.625C9.625 2.39294 9.53281 2.17038 9.36872 2.00628C9.20462 1.84219 8.98206 1.75 8.75 1.75C8.51794 1.75 8.29538 1.84219 8.13128 2.00628C7.96719 2.17038 7.875 2.39294 7.875 2.625V3.5H5.25C4.78587 3.5 4.34075 3.68437 4.01256 4.01256C3.68437 4.34075 3.5 4.78587 3.5 5.25V22.75C3.5 23.2141 3.68437 23.6592 4.01256 23.9874C4.34075 24.3156 4.78587 24.5 5.25 24.5H22.75C23.2141 24.5 23.6592 24.3156 23.9874 23.9874C24.3156 23.6592 24.5 23.2141 24.5 22.75V5.25C24.5 4.78587 24.3156 4.34075 23.9874 4.01256C23.6592 3.68437 23.2141 3.5 22.75 3.5ZM7.875 5.25V6.125C7.875 6.35706 7.96719 6.57962 8.13128 6.74372C8.29538 6.90781 8.51794 7 8.75 7C8.98206 7 9.20462 6.90781 9.36872 6.74372C9.53281 6.57962 9.625 6.35706 9.625 6.125V5.25H18.375V6.125C18.375 6.35706 18.4672 6.57962 18.6313 6.74372C18.7954 6.90781 19.0179 7 19.25 7C19.4821 7 19.7046 6.90781 19.8687 6.74372C20.0328 6.57962 20.125 6.35706 20.125 6.125V5.25H22.75V8.75H5.25V5.25H7.875ZM22.75 22.75H5.25V10.5H22.75V22.75ZM12.25 13.125V20.125C12.25 20.3571 12.1578 20.5796 11.9937 20.7437C11.8296 20.9078 11.6071 21 11.375 21C11.1429 21 10.9204 20.9078 10.7563 20.7437C10.5922 20.5796 10.5 20.3571 10.5 20.125V14.5403L10.0166 14.7831C9.80887 14.887 9.56842 14.9041 9.34812 14.8306C9.12783 14.7572 8.94572 14.5993 8.84187 14.3916C8.73803 14.1839 8.72094 13.9434 8.79437 13.7231C8.8678 13.5028 9.02574 13.3207 9.23344 13.2169L10.9834 12.3419C11.1169 12.2751 11.2652 12.2436 11.4143 12.2503C11.5634 12.257 11.7082 12.3017 11.8352 12.3801C11.9621 12.4586 12.0668 12.5683 12.1394 12.6986C12.212 12.829 12.2501 12.9758 12.25 13.125ZM18.7206 16.4555L16.625 19.25H18.375C18.6071 19.25 18.8296 19.3422 18.9937 19.5063C19.1578 19.6704 19.25 19.8929 19.25 20.125C19.25 20.3571 19.1578 20.5796 18.9937 20.7437C18.8296 20.9078 18.6071 21 18.375 21H14.875C14.7125 21 14.5532 20.9548 14.415 20.8693C14.2768 20.7839 14.165 20.6617 14.0924 20.5163C14.0197 20.371 13.9889 20.2083 14.0035 20.0464C14.0181 19.8846 14.0775 19.73 14.175 19.6L17.3228 15.4033C17.3944 15.308 17.4458 15.199 17.4738 15.0831C17.5017 14.9672 17.5057 14.8469 17.4855 14.7294C17.4653 14.6119 17.4213 14.4998 17.3562 14.3999C17.2911 14.3 17.2063 14.2145 17.1069 14.1486C17.0076 14.0827 16.8958 14.0378 16.7785 14.0167C16.6612 13.9955 16.5408 13.9985 16.4247 14.0256C16.3086 14.0526 16.1992 14.1031 16.1033 14.174C16.0074 14.2448 15.927 14.3345 15.867 14.4375C15.8113 14.5402 15.7355 14.6307 15.6442 14.7036C15.5529 14.7765 15.448 14.8304 15.3355 14.8621C15.223 14.8938 15.1054 14.9027 14.9894 14.8882C14.8735 14.8737 14.7616 14.8361 14.6604 14.7776C14.5593 14.7192 14.4708 14.6411 14.4003 14.5479C14.3298 14.4547 14.2787 14.3484 14.2499 14.2351C14.2212 14.1218 14.2155 14.004 14.233 13.8885C14.2506 13.7729 14.2911 13.6621 14.3522 13.5625C14.6412 13.0623 15.0872 12.6714 15.621 12.4505C16.1547 12.2295 16.7465 12.1908 17.3045 12.3403C17.8625 12.4899 18.3556 12.8193 18.7073 13.2776C19.0591 13.7358 19.2498 14.2973 19.25 14.875C19.2519 15.4457 19.0658 16.0011 18.7206 16.4555Z" fill="black"/>
</svg>
