<svg width="28" height="28" viewBox="0 0 28 28" fill="none" xmlns="http://www.w3.org/2000/svg">
<path d="M25.375 23.625H22.75V4.375C22.75 3.91087 22.5656 3.46575 22.2374 3.13756C21.9092 2.80937 21.4641 2.625 21 2.625H7C6.53587 2.625 6.09075 2.80937 5.76256 3.13756C5.43437 3.46575 5.25 3.91087 5.25 4.375V23.625H2.625C2.39294 23.625 2.17038 23.7172 2.00628 23.8813C1.84219 24.0454 1.75 24.2679 1.75 24.5C1.75 24.7321 1.84219 24.9546 2.00628 25.1187C2.17038 25.2828 2.39294 25.375 2.625 25.375H25.375C25.6071 25.375 25.8296 25.2828 25.9937 25.1187C26.1578 24.9546 26.25 24.7321 26.25 24.5C26.25 24.2679 26.1578 24.0454 25.9937 23.8813C25.8296 23.7172 25.6071 23.625 25.375 23.625ZM21 4.375V23.625H19.25V4.375H21ZM7 4.375H17.5V23.625H7V4.375ZM15.75 14.4375C15.75 14.6971 15.673 14.9508 15.5288 15.1667C15.3846 15.3825 15.1796 15.5508 14.9398 15.6501C14.6999 15.7494 14.436 15.7754 14.1814 15.7248C13.9268 15.6741 13.693 15.5491 13.5094 15.3656C13.3259 15.182 13.2009 14.9482 13.1502 14.6936C13.0996 14.439 13.1256 14.1751 13.2249 13.9352C13.3242 13.6954 13.4925 13.4904 13.7083 13.3462C13.9242 13.202 14.1779 13.125 14.4375 13.125C14.7856 13.125 15.1194 13.2633 15.3656 13.5094C15.6117 13.7556 15.75 14.0894 15.75 14.4375Z" fill="black"/>
</svg>
