<svg width="28" height="28" viewBox="0 0 28 28" fill="none" xmlns="http://www.w3.org/2000/svg">
<path d="M22.75 3.5H5.25C4.78587 3.5 4.34075 3.68437 4.01256 4.01256C3.68437 4.34075 3.5 4.78587 3.5 5.25V22.75C3.5 23.2141 3.68437 23.6592 4.01256 23.9874C4.34075 24.3156 4.78587 24.5 5.25 24.5H22.75C23.2141 24.5 23.6592 24.3156 23.9874 23.9874C24.3156 23.6592 24.5 23.2141 24.5 22.75V5.25C24.5 4.78587 24.3156 4.34075 23.9874 4.01256C23.6592 3.68437 23.2141 3.5 22.75 3.5ZM19.25 12.25V22.75H14.875V12.25H19.25ZM13.125 22.75H8.75V12.25H13.125V22.75ZM22.75 22.75H21V11.375C21 11.1429 20.9078 10.9204 20.7437 10.7563C20.5796 10.5922 20.3571 10.5 20.125 10.5H7.875C7.64294 10.5 7.42038 10.5922 7.25628 10.7563C7.09219 10.9204 7 11.1429 7 11.375V22.75H5.25V5.25H22.75V22.75ZM16.625 7.875C16.625 8.10706 16.5328 8.32962 16.3687 8.49372C16.2046 8.65781 15.9821 8.75 15.75 8.75H12.25C12.0179 8.75 11.7954 8.65781 11.6313 8.49372C11.4672 8.32962 11.375 8.10706 11.375 7.875C11.375 7.64294 11.4672 7.42038 11.6313 7.25628C11.7954 7.09219 12.0179 7 12.25 7H15.75C15.9821 7 16.2046 7.09219 16.3687 7.25628C16.5328 7.42038 16.625 7.64294 16.625 7.875Z" fill="black"/>
</svg>
