<svg width="28" height="28" viewBox="0 0 28 28" fill="none" xmlns="http://www.w3.org/2000/svg">
<path d="M25.375 23.625H22.75V4.375C22.75 3.91087 22.5656 3.46575 22.2374 3.13756C21.9092 2.80937 21.4641 2.625 21 2.625H7C6.53587 2.625 6.09075 2.80937 5.76256 3.13756C5.43437 3.46575 5.25 3.91087 5.25 4.375V23.625H2.625C2.39294 23.625 2.17038 23.7172 2.00628 23.8813C1.84219 24.0454 1.75 24.2679 1.75 24.5C1.75 24.7321 1.84219 24.9546 2.00628 25.1187C2.17038 25.2828 2.39294 25.375 2.625 25.375H25.375C25.6071 25.375 25.8296 25.2828 25.9937 25.1187C26.1578 24.9546 26.25 24.7321 26.25 24.5C26.25 24.2679 26.1578 24.0454 25.9937 23.8813C25.8296 23.7172 25.6071 23.625 25.375 23.625ZM7 4.375H21V23.625H7V4.375ZM18.375 14.4375C18.375 14.6971 18.298 14.9508 18.1538 15.1667C18.0096 15.3825 17.8046 15.5508 17.5648 15.6501C17.3249 15.7494 17.061 15.7754 16.8064 15.7248C16.5518 15.6741 16.318 15.5491 16.1344 15.3656C15.9509 15.182 15.8259 14.9482 15.7752 14.6936C15.7246 14.439 15.7506 14.1751 15.8499 13.9352C15.9492 13.6954 16.1175 13.4904 16.3333 13.3462C16.5492 13.202 16.8029 13.125 17.0625 13.125C17.4106 13.125 17.7444 13.2633 17.9906 13.5094C18.2367 13.7556 18.375 14.0894 18.375 14.4375Z" fill="black"/>
</svg>
