<svg width="28" height="28" viewBox="0 0 28 28" fill="none" xmlns="http://www.w3.org/2000/svg">
<path d="M21.875 2.625H6.125C5.66087 2.625 5.21575 2.80937 4.88756 3.13756C4.55937 3.46575 4.375 3.91087 4.375 4.375V23.625C4.375 24.0891 4.55937 24.5342 4.88756 24.8624C5.21575 25.1906 5.66087 25.375 6.125 25.375H21.875C22.3391 25.375 22.7842 25.1906 23.1124 24.8624C23.4406 24.5342 23.625 24.0891 23.625 23.625V4.375C23.625 3.91087 23.4406 3.46575 23.1124 3.13756C22.7842 2.80937 22.3391 2.625 21.875 2.625ZM16.625 15.75H21.875V18.375H12.25V15.75H16.625ZM17.5 14V11.375H21.875V14H17.5ZM21.875 4.375V9.625H16.625C16.3929 9.625 16.1704 9.71719 16.0063 9.88128C15.8422 10.0454 15.75 10.2679 15.75 10.5V14H11.375C11.1429 14 10.9204 14.0922 10.7563 14.2563C10.5922 14.4204 10.5 14.6429 10.5 14.875V18.375H6.125V4.375H21.875ZM21.875 23.625H6.125V20.125H21.875V23.625Z" fill="black"/>
</svg>
