<svg width="28" height="28" viewBox="0 0 28 28" fill="none" xmlns="http://www.w3.org/2000/svg">
<path d="M26.25 22.75H24.5V10.5C24.5 10.0359 24.3156 9.59079 23.9874 9.2626C23.6592 8.93441 23.2141 8.75004 22.75 8.75004H15.75V3.50004C15.7502 3.18314 15.6644 2.87213 15.5016 2.60021C15.3389 2.32829 15.1054 2.10566 14.826 1.95609C14.5466 1.80652 14.2318 1.73562 13.9153 1.75095C13.5988 1.76629 13.2924 1.86728 13.0288 2.04316L4.27875 7.87504C4.03871 8.03519 3.84201 8.2522 3.70614 8.50677C3.57027 8.76133 3.49945 9.04555 3.5 9.3341V22.75H1.75C1.51794 22.75 1.29538 22.8422 1.13128 23.0063C0.967187 23.1704 0.875 23.393 0.875 23.625C0.875 23.8571 0.967187 24.0797 1.13128 24.2438C1.29538 24.4079 1.51794 24.5 1.75 24.5H26.25C26.4821 24.5 26.7046 24.4079 26.8687 24.2438C27.0328 24.0797 27.125 23.8571 27.125 23.625C27.125 23.393 27.0328 23.1704 26.8687 23.0063C26.7046 22.8422 26.4821 22.75 26.25 22.75ZM22.75 10.5V22.75H15.75V10.5H22.75ZM5.25 9.3341L14 3.50004V22.75H5.25V9.3341ZM12.25 12.25V14C12.25 14.2321 12.1578 14.4547 11.9937 14.6188C11.8296 14.7829 11.6071 14.875 11.375 14.875C11.1429 14.875 10.9204 14.7829 10.7563 14.6188C10.5922 14.4547 10.5 14.2321 10.5 14V12.25C10.5 12.018 10.5922 11.7954 10.7563 11.6313C10.9204 11.4672 11.1429 11.375 11.375 11.375C11.6071 11.375 11.8296 11.4672 11.9937 11.6313C12.1578 11.7954 12.25 12.018 12.25 12.25ZM8.75 12.25V14C8.75 14.2321 8.65781 14.4547 8.49372 14.6188C8.32962 14.7829 8.10706 14.875 7.875 14.875C7.64294 14.875 7.42038 14.7829 7.25628 14.6188C7.09219 14.4547 7 14.2321 7 14V12.25C7 12.018 7.09219 11.7954 7.25628 11.6313C7.42038 11.4672 7.64294 11.375 7.875 11.375C8.10706 11.375 8.32962 11.4672 8.49372 11.6313C8.65781 11.7954 8.75 12.018 8.75 12.25ZM8.75 18.375V20.125C8.75 20.3571 8.65781 20.5797 8.49372 20.7438C8.32962 20.9079 8.10706 21 7.875 21C7.64294 21 7.42038 20.9079 7.25628 20.7438C7.09219 20.5797 7 20.3571 7 20.125V18.375C7 18.143 7.09219 17.9204 7.25628 17.7563C7.42038 17.5922 7.64294 17.5 7.875 17.5C8.10706 17.5 8.32962 17.5922 8.49372 17.7563C8.65781 17.9204 8.75 18.143 8.75 18.375ZM12.25 18.375V20.125C12.25 20.3571 12.1578 20.5797 11.9937 20.7438C11.8296 20.9079 11.6071 21 11.375 21C11.1429 21 10.9204 20.9079 10.7563 20.7438C10.5922 20.5797 10.5 20.3571 10.5 20.125V18.375C10.5 18.143 10.5922 17.9204 10.7563 17.7563C10.9204 17.5922 11.1429 17.5 11.375 17.5C11.6071 17.5 11.8296 17.5922 11.9937 17.7563C12.1578 17.9204 12.25 18.143 12.25 18.375Z" fill="black"/>
</svg>
