<svg width="28" height="28" viewBox="0 0 28 28" fill="none" xmlns="http://www.w3.org/2000/svg">
<path d="M26.25 22.75H24.5V12.6383C24.5 12.3961 24.4498 12.1565 24.3525 11.9347C24.2551 11.7129 24.1128 11.5138 23.9345 11.3498L15.1845 3.09419C15.1803 3.09046 15.1762 3.08644 15.1725 3.08216C14.8503 2.78918 14.4305 2.62683 13.9951 2.62683C13.5596 2.62683 13.1398 2.78918 12.8177 3.08216L12.8056 3.09419L4.06547 11.3498C3.88719 11.5138 3.74487 11.7129 3.64754 11.9347C3.5502 12.1565 3.49996 12.3961 3.5 12.6383V22.75H1.75C1.51794 22.75 1.29538 22.8422 1.13128 23.0063C0.967187 23.1703 0.875 23.3929 0.875 23.625C0.875 23.857 0.967187 24.0796 1.13128 24.2437C1.29538 24.4078 1.51794 24.5 1.75 24.5H26.25C26.4821 24.5 26.7046 24.4078 26.8687 24.2437C27.0328 24.0796 27.125 23.857 27.125 23.625C27.125 23.3929 27.0328 23.1703 26.8687 23.0063C26.7046 22.8422 26.4821 22.75 26.25 22.75ZM5.25 12.6383L5.26203 12.6273L14 4.37497L22.7391 12.6251L22.7511 12.6361V22.75H17.5V17.5C17.5 17.0358 17.3156 16.5907 16.9874 16.2625C16.6592 15.9343 16.2141 15.75 15.75 15.75H12.25C11.7859 15.75 11.3408 15.9343 11.0126 16.2625C10.6844 16.5907 10.5 17.0358 10.5 17.5V22.75H5.25V12.6383ZM15.75 22.75H12.25V17.5H15.75V22.75Z" fill="black"/>
</svg>
