<svg width="28" height="28" viewBox="0 0 28 28" fill="none" xmlns="http://www.w3.org/2000/svg">
<path d="M22.4943 6.74188L6.74432 22.4919C6.58013 22.6561 6.35745 22.7483 6.12526 22.7483C5.89306 22.7483 5.67038 22.6561 5.50619 22.4919C5.34201 22.3277 5.24977 22.105 5.24977 21.8728C5.24977 21.6406 5.34201 21.4179 5.50619 21.2538L21.2562 5.50375C21.4202 5.33957 21.6428 5.24727 21.8749 5.24717C22.107 5.24707 22.3296 5.33917 22.4938 5.50321C22.658 5.66725 22.7503 5.88979 22.7504 6.12188C22.7505 6.35397 22.6584 6.5766 22.4943 6.74079V6.74188ZM5.52807 11.095C4.78967 10.3565 4.3749 9.35484 4.375 8.31048C4.3751 7.26612 4.79007 6.26458 5.52862 5.52618C6.26716 4.78778 7.26878 4.37301 8.31314 4.37311C9.3575 4.37321 10.359 4.78818 11.0974 5.52672C11.8358 6.26527 12.2506 7.26689 12.2505 8.31125C12.2504 9.35561 11.8354 10.3572 11.0969 11.0956C10.3584 11.834 9.35673 12.2487 8.31237 12.2486C7.26801 12.2485 6.26647 11.8336 5.52807 11.095ZM6.12526 8.31251C6.12554 8.67218 6.21451 9.02624 6.38428 9.34333C6.55406 9.66042 6.7994 9.93075 7.09859 10.1304C7.39777 10.33 7.74157 10.4528 8.09954 10.4879C8.4575 10.5229 8.81859 10.4692 9.15082 10.3314C9.48306 10.1936 9.77619 9.97598 10.0043 9.69786C10.2323 9.41974 10.3883 9.08967 10.4584 8.73688C10.5284 8.38409 10.5104 8.01947 10.4059 7.6753C10.3014 7.33114 10.1137 7.01805 9.85932 6.76375C9.55326 6.45779 9.16333 6.24948 8.73885 6.16518C8.31438 6.08089 7.87443 6.12439 7.47469 6.29019C7.07494 6.45599 6.73336 6.73663 6.49315 7.09662C6.25295 7.4566 6.12492 7.87974 6.12526 8.31251ZM23.6253 19.6875C23.625 20.5985 23.309 21.4812 22.7309 22.1852C22.1529 22.8892 21.3486 23.3711 20.4551 23.5486C19.5616 23.7261 18.6342 23.5884 17.8309 23.1588C17.0276 22.7292 16.3981 22.0344 16.0497 21.1927C15.7012 20.351 15.6554 19.4146 15.92 18.5429C16.1846 17.6712 16.7433 16.9183 17.5008 16.4123C18.2583 15.9063 19.1678 15.6787 20.0744 15.7681C20.9809 15.8576 21.8284 16.2586 22.4724 16.9028C22.8392 17.2677 23.13 17.7017 23.3278 18.1797C23.5257 18.6577 23.6268 19.1702 23.6253 19.6875ZM21.8753 19.6875C21.8754 19.1814 21.7 18.6909 21.379 18.2997C21.058 17.9084 20.6113 17.6405 20.1149 17.5417C19.6186 17.4428 19.1033 17.5192 18.6569 17.7576C18.2106 17.9961 17.8607 18.382 17.6669 18.8496C17.4732 19.3171 17.4475 19.8373 17.5943 20.3217C17.7412 20.806 18.0514 21.2244 18.4721 21.5057C18.8929 21.7869 19.3982 21.9136 19.9018 21.864C20.4055 21.8145 20.8764 21.5919 21.2343 21.2341C21.4381 21.0315 21.5997 20.7904 21.7097 20.525C21.8197 20.2595 21.876 19.9749 21.8753 19.6875Z" fill="black"/>
</svg>
